<svg xmlns="http://www.w3.org/2000/svg" viewBox="0 0 512 512">
  <defs>
    <linearGradient id="bg" x1="0" y1="0" x2="1" y2="1">
      <stop offset="0" stop-color="#2D4A3E"></stop>
      <stop offset="1" stop-color="#4A6E5E"></stop>
    </linearGradient>
  </defs>
  <rect width="512" height="512" rx="112" fill="url(#bg)"></rect>
  <path d="M256 380c-9 0-17-3-23-9-21-19-71-65-91-101-13-23-19-46-19-66 0-43 32-76 75-76 23 0 44 11 58 28 14-17 35-28 58-28 43 0 75 33 75 76 0 20-6 43-19 66-20 36-70 82-91 101-6 6-14 9-23 9z" fill="#E8896B"></path>
  <path d="M180 256h40l16-30 32 60 16-30h48" stroke="#FBF7F2" stroke-width="14" stroke-linecap="round" stroke-linejoin="round" fill="none"></path>
</svg>